<svg xmlns="http://www.w3.org/2000/svg" xmlns:xlink="http://www.w3.org/1999/xlink" width="500" zoomAndPan="magnify" viewBox="0 0 375 374.999991" height="500" preserveAspectRatio="xMidYMid meet" version="1.0"><defs><g/><clipPath id="9b82a062de"><rect x="0" width="330" y="0" height="148"/></clipPath><clipPath id="f8a5400e1f"><path d="M 95.769531 144.738281 L 111.445312 144.738281 L 111.445312 160.414062 L 95.769531 160.414062 Z M 95.769531 144.738281 " clip-rule="nonzero"/></clipPath><clipPath id="e4db7843cc"><path d="M 103.609375 144.738281 C 99.28125 144.738281 95.769531 148.246094 95.769531 152.574219 C 95.769531 156.902344 99.28125 160.414062 103.609375 160.414062 C 107.9375 160.414062 111.445312 156.902344 111.445312 152.574219 C 111.445312 148.246094 107.9375 144.738281 103.609375 144.738281 Z M 103.609375 144.738281 " clip-rule="nonzero"/></clipPath><clipPath id="1873bf4e79"><path d="M 0.769531 0.738281 L 16.445312 0.738281 L 16.445312 16.414062 L 0.769531 16.414062 Z M 0.769531 0.738281 " clip-rule="nonzero"/></clipPath><clipPath id="f0c0724ec8"><path d="M 8.609375 0.738281 C 4.28125 0.738281 0.769531 4.246094 0.769531 8.574219 C 0.769531 12.902344 4.28125 16.414062 8.609375 16.414062 C 12.9375 16.414062 16.445312 12.902344 16.445312 8.574219 C 16.445312 4.246094 12.9375 0.738281 8.609375 0.738281 Z M 8.609375 0.738281 " clip-rule="nonzero"/></clipPath><clipPath id="9b6e0209f4"><rect x="0" width="17" y="0" height="17"/></clipPath></defs><path fill="#d62828" d="M 99.726562 149.199219 L 140.226562 149.199219 L 140.226562 155.949219 L 99.726562 155.949219 M 146.976562 149.199219 L 187.476562 149.199219 L 187.476562 155.949219 L 146.976562 155.949219 M 194.226562 149.199219 L 234.726562 149.199219 L 234.726562 155.949219 L 194.226562 155.949219 M 241.476562 149.199219 L 281.976562 149.199219 L 281.976562 155.949219 L 241.476562 155.949219 M 288.726562 149.199219 L 329.226562 149.199219 L 329.226562 155.949219 L 288.726562 155.949219 " fill-opacity="1" fill-rule="nonzero"/><g transform="matrix(1, 0, 0, 1, 22, 113)"><g clip-path="url(#9b82a062de)"><g fill="#000000" fill-opacity="1"><g transform="translate(0.924031, 117.333828)"><g><path d="M 29.609375 -72.375 L 2.09375 -72.375 L 2.09375 -82.046875 L 68.1875 -82.046875 L 68.1875 -72.375 L 40.671875 -72.375 L 40.671875 0 L 29.609375 0 Z M 29.609375 -72.375 "/></g></g></g><g fill="#000000" fill-opacity="1"><g transform="translate(69.44733, 117.333828)"><g><path d="M 12.359375 -70.515625 L 11.65625 -70.515625 C 9.5625 -70.515625 7.8125 -71.234375 6.40625 -72.671875 C 5.007812 -74.109375 4.3125 -75.796875 4.3125 -77.734375 C 4.3125 -79.835938 5.007812 -81.566406 6.40625 -82.921875 C 7.8125 -84.285156 9.5625 -84.96875 11.65625 -84.96875 L 12.359375 -84.96875 C 14.453125 -84.96875 16.195312 -84.285156 17.59375 -82.921875 C 19 -81.566406 19.703125 -79.835938 19.703125 -77.734375 C 19.703125 -75.796875 19 -74.109375 17.59375 -72.671875 C 16.195312 -71.234375 14.453125 -70.515625 12.359375 -70.515625 Z M 6.640625 -60.25 L 17.359375 -60.25 L 17.359375 0 L 6.640625 0 Z M 6.640625 -60.25 "/></g></g></g><g fill="#000000" fill-opacity="1"><g transform="translate(91.705549, 117.333828)"><g><path d="M 32.859375 1.625 C 28.117188 1.625 23.921875 0.8125 20.265625 -0.8125 C 16.617188 -2.445312 13.570312 -4.703125 11.125 -7.578125 C 8.675781 -10.453125 6.8125 -13.832031 5.53125 -17.71875 C 4.25 -21.601562 3.609375 -25.757812 3.609375 -30.1875 C 3.609375 -34.613281 4.269531 -38.769531 5.59375 -42.65625 C 6.914062 -46.539062 8.816406 -49.898438 11.296875 -52.734375 C 13.785156 -55.566406 16.835938 -57.800781 20.453125 -59.4375 C 24.066406 -61.070312 28.164062 -61.890625 32.75 -61.890625 C 37.175781 -61.890625 41.117188 -61.128906 44.578125 -59.609375 C 48.035156 -58.097656 50.929688 -56 53.265625 -53.3125 C 55.597656 -50.632812 57.382812 -47.46875 58.625 -43.8125 C 59.863281 -40.164062 60.484375 -36.242188 60.484375 -32.046875 L 60.484375 -27.734375 L 14.453125 -27.734375 L 14.453125 -27.390625 C 14.453125 -21.097656 16.21875 -16.085938 19.75 -12.359375 C 23.289062 -8.628906 27.703125 -6.765625 32.984375 -6.765625 C 37.640625 -6.765625 41.269531 -7.890625 43.875 -10.140625 C 46.476562 -12.390625 48.015625 -14.835938 48.484375 -17.484375 L 59.328125 -17.484375 C 58.234375 -11.890625 55.351562 -7.304688 50.6875 -3.734375 C 46.03125 -0.160156 40.085938 1.625 32.859375 1.625 Z M 32.75 -53.609375 C 28.007812 -53.609375 23.910156 -51.992188 20.453125 -48.765625 C 16.992188 -45.546875 15.03125 -41.101562 14.5625 -35.4375 L 49.65625 -35.4375 C 49.570312 -41.1875 47.9375 -45.648438 44.75 -48.828125 C 41.5625 -52.015625 37.5625 -53.609375 32.75 -53.609375 Z M 32.75 -53.609375 "/></g></g></g><g fill="#000000" fill-opacity="1"><g transform="translate(154.052394, 117.333828)"><g><path d="M 32.859375 1.625 C 28.203125 1.625 24.046875 0.8125 20.390625 -0.8125 C 16.742188 -2.445312 13.695312 -4.703125 11.25 -7.578125 C 8.800781 -10.453125 6.914062 -13.832031 5.59375 -17.71875 C 4.269531 -21.601562 3.609375 -25.757812 3.609375 -30.1875 C 3.609375 -34.613281 4.269531 -38.769531 5.59375 -42.65625 C 6.914062 -46.539062 8.835938 -49.898438 11.359375 -52.734375 C 13.890625 -55.566406 16.957031 -57.800781 20.5625 -59.4375 C 24.175781 -61.070312 28.273438 -61.890625 32.859375 -61.890625 C 37.453125 -61.890625 41.570312 -61.070312 45.21875 -59.4375 C 48.875 -57.800781 51.941406 -55.566406 54.421875 -52.734375 C 56.910156 -49.898438 58.816406 -46.539062 60.140625 -42.65625 C 61.460938 -38.769531 62.125 -34.613281 62.125 -30.1875 C 62.125 -25.757812 61.460938 -21.601562 60.140625 -17.71875 C 58.816406 -13.832031 56.929688 -10.453125 54.484375 -7.578125 C 52.035156 -4.703125 48.984375 -2.445312 45.328125 -0.8125 C 41.679688 0.8125 37.523438 1.625 32.859375 1.625 Z M 51.390625 -27.96875 L 51.390625 -32.40625 C 51.390625 -38.851562 49.5625 -43.878906 45.90625 -47.484375 C 42.257812 -51.097656 37.910156 -52.90625 32.859375 -52.90625 C 27.816406 -52.90625 23.488281 -51.0625 19.875 -47.375 C 16.257812 -43.6875 14.453125 -38.695312 14.453125 -32.40625 L 14.453125 -27.96875 C 14.453125 -21.675781 16.257812 -16.664062 19.875 -12.9375 C 23.488281 -9.207031 27.816406 -7.34375 32.859375 -7.34375 C 37.910156 -7.34375 42.257812 -9.148438 45.90625 -12.765625 C 49.5625 -16.378906 51.390625 -21.445312 51.390625 -27.96875 Z M 51.390625 -27.96875 "/></g></g></g><g fill="#000000" fill-opacity="1"><g transform="translate(218.030741, 117.333828)"><g><path d="M 47.78125 -24.9375 L 47.78125 -60.25 L 58.5 -60.25 L 58.5 0 L 48.359375 0 L 48.359375 -10.25 L 48.25 -10.25 C 46.539062 -6.289062 43.9375 -3.320312 40.4375 -1.34375 C 36.945312 0.632812 32.984375 1.625 28.546875 1.625 C 25.441406 1.625 22.507812 1.097656 19.75 0.046875 C 17 -0.992188 14.613281 -2.523438 12.59375 -4.546875 C 10.570312 -6.566406 8.976562 -9.09375 7.8125 -12.125 C 6.644531 -15.15625 6.0625 -18.648438 6.0625 -22.609375 L 6.0625 -60.25 L 16.78125 -60.25 L 16.78125 -23.546875 C 16.78125 -18.179688 18.273438 -14.15625 21.265625 -11.46875 C 24.253906 -8.789062 27.734375 -7.453125 31.703125 -7.453125 C 33.796875 -7.453125 35.8125 -7.800781 37.75 -8.5 C 39.695312 -9.207031 41.410156 -10.28125 42.890625 -11.71875 C 44.367188 -13.15625 45.550781 -14.976562 46.4375 -17.1875 C 47.332031 -19.40625 47.78125 -21.988281 47.78125 -24.9375 Z M 47.78125 -24.9375 "/></g></g></g><g fill="#000000" fill-opacity="1"><g transform="translate(281.426405, 117.333828)"><g><path d="M 1.40625 -60.25 L 15.265625 -60.25 L 15.265625 -78.3125 L 25.984375 -78.3125 L 25.984375 -60.25 L 45.6875 -60.25 L 45.6875 -51.390625 L 25.984375 -51.390625 L 25.984375 -15.03125 C 25.984375 -12.851562 26.445312 -11.28125 27.375 -10.3125 C 28.3125 -9.34375 29.867188 -8.859375 32.046875 -8.859375 L 45.796875 -8.859375 L 45.796875 0 L 30.0625 0 C 24.9375 0 21.1875 -1.203125 18.8125 -3.609375 C 16.445312 -6.015625 15.265625 -9.585938 15.265625 -14.328125 L 15.265625 -51.390625 L 1.40625 -51.390625 Z M 1.40625 -60.25 "/></g></g></g></g></g><g clip-path="url(#f8a5400e1f)"><g clip-path="url(#e4db7843cc)"><g transform="matrix(1, 0, 0, 1, 95, 144)"><g clip-path="url(#9b6e0209f4)"><g clip-path="url(#1873bf4e79)"><g clip-path="url(#f0c0724ec8)"><path fill="#d62828" d="M 0.769531 0.738281 L 16.445312 0.738281 L 16.445312 16.414062 L 0.769531 16.414062 Z M 0.769531 0.738281 " fill-opacity="1" fill-rule="nonzero"/></g></g></g></g></g></g></svg>