<svg xmlns="http://www.w3.org/2000/svg" xmlns:xlink="http://www.w3.org/1999/xlink" width="475" zoomAndPan="magnify" viewBox="0 0 356.25 93.749996" height="125" preserveAspectRatio="xMidYMid meet" version="1.0"><defs><g/><clipPath id="f244cce98f"><path d="M 17 0 L 337 0 L 337 93.5 L 17 93.5 Z M 17 0 " clip-rule="nonzero"/></clipPath><clipPath id="e61663297f"><path d="M 0.8125 0 L 319.882812 0 L 319.882812 93.5 L 0.8125 93.5 Z M 0.8125 0 " clip-rule="nonzero"/></clipPath><clipPath id="28c4623370"><rect x="0" width="320" y="0" height="94"/></clipPath><clipPath id="3b291e2ff6"><rect x="0" width="320" y="0" height="94"/></clipPath></defs><g clip-path="url(#f244cce98f)"><g transform="matrix(1, 0, 0, 1, 17, 0.000000000000013659)"><g clip-path="url(#3b291e2ff6)"><g clip-path="url(#e61663297f)"><g transform="matrix(1, 0, 0, 1, -0.000000000000003553, 0.000000000000013659)"><g clip-path="url(#28c4623370)"><g fill="#334c6a" fill-opacity="1"><g transform="translate(1.733044, 85.577681)"><g><path d="M 64.703125 -71.53125 L 38.984375 -71.53125 L 38.984375 0 L 28.421875 0 L 28.421875 -71.53125 L 2.75 -71.53125 L 2.75 -80.1875 L 64.703125 -80.1875 Z M 64.703125 -71.53125 "/></g></g></g><g fill="#334c6a" fill-opacity="1"><g transform="translate(69.025727, 85.577681)"><g><path d="M 13.828125 -81.28125 C 15.734375 -81.28125 17.226562 -80.726562 18.3125 -79.625 C 19.394531 -78.53125 19.9375 -77.132812 19.9375 -75.4375 C 19.9375 -73.789062 19.394531 -72.425781 18.3125 -71.34375 C 17.226562 -70.257812 15.734375 -69.71875 13.828125 -69.71875 C 11.910156 -69.71875 10.425781 -70.257812 9.375 -71.34375 C 8.332031 -72.425781 7.8125 -73.789062 7.8125 -75.4375 C 7.8125 -77.132812 8.332031 -78.53125 9.375 -79.625 C 10.425781 -80.726562 11.910156 -81.28125 13.828125 -81.28125 Z M 8.59375 0 L 8.59375 -59.578125 L 18.890625 -59.578125 L 18.890625 0 Z M 8.59375 0 "/></g></g></g><g fill="#334c6a" fill-opacity="1"><g transform="translate(96.449423, 85.577681)"><g><path d="M 55.734375 -26.984375 L 15.421875 -26.984375 C 15.523438 -23.273438 16.289062 -19.914062 17.71875 -16.90625 C 19.15625 -13.894531 21.1875 -11.515625 23.8125 -9.765625 C 26.4375 -8.023438 29.515625 -7.15625 33.046875 -7.15625 C 36.492188 -7.15625 39.472656 -7.851562 41.984375 -9.25 C 44.503906 -10.644531 46.753906 -12.644531 48.734375 -15.25 L 54.953125 -10.40625 C 52.753906 -7.03125 49.816406 -4.269531 46.140625 -2.125 C 42.472656 0.0195312 37.921875 1.09375 32.484375 1.09375 C 27.054688 1.09375 22.265625 -0.132812 18.109375 -2.59375 C 13.960938 -5.050781 10.757812 -8.460938 8.5 -12.828125 C 6.25 -17.203125 5.125 -22.160156 5.125 -27.703125 L 5.125 -30.0625 C 5.125 -36.269531 6.332031 -41.695312 8.75 -46.34375 C 11.175781 -50.988281 14.378906 -54.539062 18.359375 -57 C 22.347656 -59.457031 26.617188 -60.6875 31.171875 -60.6875 C 36.710938 -60.6875 41.304688 -59.445312 44.953125 -56.96875 C 48.609375 -54.488281 51.316406 -51.0625 53.078125 -46.6875 C 54.847656 -42.320312 55.734375 -37.273438 55.734375 -31.546875 Z M 45.4375 -36.015625 C 45.132812 -40.679688 43.875 -44.582031 41.65625 -47.71875 C 39.4375 -50.851562 35.941406 -52.421875 31.171875 -52.421875 C 27.097656 -52.421875 23.679688 -50.914062 20.921875 -47.90625 C 18.171875 -44.894531 16.445312 -40.675781 15.75 -35.25 L 45.4375 -35.25 Z M 45.4375 -36.015625 "/></g></g></g><g fill="#334c6a" fill-opacity="1"><g transform="translate(156.307977, 85.577681)"><g><path d="M 5.0625 -30.390625 C 5.0625 -36.160156 6.160156 -41.335938 8.359375 -45.921875 C 10.566406 -50.515625 13.71875 -54.125 17.8125 -56.75 C 21.90625 -59.375 26.671875 -60.6875 32.109375 -60.6875 C 37.609375 -60.6875 42.414062 -59.375 46.53125 -56.75 C 50.644531 -54.125 53.800781 -50.515625 56 -45.921875 C 58.207031 -41.335938 59.3125 -36.160156 59.3125 -30.390625 L 59.3125 -29.125 C 59.3125 -23.363281 58.207031 -18.195312 56 -13.625 C 53.800781 -9.0625 50.65625 -5.46875 46.5625 -2.84375 C 42.46875 -0.21875 37.6875 1.09375 32.21875 1.09375 C 26.75 1.09375 21.96875 -0.21875 17.875 -2.84375 C 13.78125 -5.46875 10.617188 -9.0625 8.390625 -13.625 C 6.171875 -18.195312 5.0625 -23.363281 5.0625 -29.125 Z M 15.359375 -29.125 C 15.359375 -25.09375 15.988281 -21.40625 17.25 -18.0625 C 18.519531 -14.71875 20.421875 -12.0625 22.953125 -10.09375 C 25.492188 -8.132812 28.582031 -7.15625 32.21875 -7.15625 C 35.8125 -7.15625 38.875 -8.132812 41.40625 -10.09375 C 43.945312 -12.0625 45.847656 -14.71875 47.109375 -18.0625 C 48.378906 -21.40625 49.015625 -25.09375 49.015625 -29.125 L 49.015625 -30.390625 C 49.015625 -34.429688 48.367188 -38.125 47.078125 -41.46875 C 45.796875 -44.8125 43.890625 -47.472656 41.359375 -49.453125 C 38.828125 -51.429688 35.742188 -52.421875 32.109375 -52.421875 C 28.503906 -52.421875 25.441406 -51.429688 22.921875 -49.453125 C 20.410156 -47.472656 18.519531 -44.8125 17.25 -41.46875 C 15.988281 -38.125 15.359375 -34.429688 15.359375 -30.390625 Z M 15.359375 -29.125 "/></g></g></g><g fill="#334c6a" fill-opacity="1"><g transform="translate(220.682067, 85.577681)"><g><path d="M 54.46875 -59.578125 L 54.46875 0 L 44.65625 0 L 44.4375 -5.84375 C 40.507812 -1.21875 34.707031 1.09375 27.03125 1.09375 C 20.90625 1.09375 16.113281 -0.703125 12.65625 -4.296875 C 9.207031 -7.890625 7.484375 -13.503906 7.484375 -21.140625 L 7.484375 -59.578125 L 17.78125 -59.578125 L 17.78125 -21.03125 C 17.78125 -16.082031 18.800781 -12.585938 20.84375 -10.546875 C 22.882812 -8.503906 25.5 -7.484375 28.6875 -7.484375 C 32.65625 -7.484375 35.914062 -8.234375 38.46875 -9.734375 C 41.019531 -11.242188 42.921875 -13.359375 44.171875 -16.078125 L 44.171875 -59.578125 Z M 54.46875 -59.578125 "/></g></g></g><g fill="#334c6a" fill-opacity="1"><g transform="translate(282.853476, 85.577681)"><g><path d="M 32.984375 0 C 30.640625 0.726562 28.015625 1.09375 25.109375 1.09375 C 20.960938 1.09375 17.628906 -0.148438 15.109375 -2.640625 C 12.597656 -5.140625 11.34375 -9.195312 11.34375 -14.8125 L 11.34375 -51.8125 L 0.5 -51.8125 L 0.5 -59.578125 L 11.34375 -59.578125 L 11.34375 -74.0625 L 21.640625 -74.0625 L 21.640625 -59.578125 L 32.765625 -59.578125 L 32.765625 -51.8125 L 21.640625 -51.8125 L 21.640625 -14.765625 C 21.640625 -11.929688 22.226562 -10.023438 23.40625 -9.046875 C 24.582031 -8.078125 26.179688 -7.59375 28.203125 -7.59375 C 28.972656 -7.59375 29.816406 -7.65625 30.734375 -7.78125 C 31.648438 -7.914062 32.382812 -8.054688 32.9375 -8.203125 Z M 32.984375 0 "/></g></g></g></g></g></g><path stroke-linecap="butt" transform="matrix(1.126495, 0, 0, 1.126495, 106.200925, 8.298308)" fill="none" stroke-linejoin="miter" d="M 11.250893 1.500205 L 144.535572 1.500205 " stroke="#334c6a" stroke-width="3" stroke-opacity="1" stroke-miterlimit="4"/><path stroke-linecap="round" transform="matrix(1.126495, 0, 0, 1.126495, 106.200925, 8.298308)" fill="none" stroke-linejoin="round" d="M 1.499963 1.500205 C 1.499963 -0.986075 3.514646 -3.000758 6.000925 -3.000758 C 8.483737 -3.000758 10.498421 -0.986075 10.498421 1.500205 C 10.498421 3.986484 8.483737 6.001167 6.000925 6.001167 C 3.514646 6.001167 1.499963 3.986484 1.499963 1.500205 " stroke="#334c6a" stroke-width="3" stroke-opacity="1" stroke-miterlimit="4"/><path stroke-linecap="round" transform="matrix(1.126495, 0, 0, 1.126495, 106.200925, 8.298308)" fill="none" stroke-linejoin="round" d="M 154.286502 1.500205 C 154.286502 3.986484 152.271818 6.001167 149.785539 6.001167 C 147.29926 6.001167 145.284576 3.986484 145.284576 1.500205 C 145.284576 -0.986075 147.29926 -3.000758 149.785539 -3.000758 C 152.271818 -3.000758 154.286502 -0.986075 154.286502 1.500205 " stroke="#334c6a" stroke-width="3" stroke-opacity="1" stroke-miterlimit="4"/></g></g></g></svg>