<svg xmlns="http://www.w3.org/2000/svg" viewBox="0 0 400 400" fill="none" stroke="currentColor" stroke-width="1.5">
  <!-- Top Left -->
  <path d="M 80 140 Q 80 120 90 110 L 100 105 Q 110 100 115 110 L 120 125" opacity="0.8"/>
  <path d="M 85 145 Q 85 128 93 118 L 100 113 Q 108 108 112 115 L 115 128" opacity="0.6"/>
  <path d="M 90 150 Q 92 135 98 128 L 103 123 Q 108 120 110 125 L 112 135" opacity="0.4"/>

  <path d="M 95 155 Q 100 142 108 135 L 115 130 Q 120 127 123 133 L 125 145" opacity="0.8"/>
  <path d="M 100 160 Q 105 148 113 142 L 118 138 Q 123 135 125 140 L 127 150" opacity="0.6"/>
  <path d="M 105 165 Q 110 154 117 148 L 122 144 Q 126 142 128 146 L 130 155" opacity="0.4"/>

  <!-- Top Right -->
  <path d="M 320 140 Q 320 120 310 110 L 300 105 Q 290 100 285 110 L 280 125" opacity="0.8"/>
  <path d="M 315 145 Q 315 128 307 118 L 300 113 Q 292 108 288 115 L 285 128" opacity="0.6"/>
  <path d="M 310 150 Q 308 135 302 128 L 297 123 Q 292 120 290 125 L 288 135" opacity="0.4"/>

  <path d="M 305 155 Q 300 142 292 135 L 285 130 Q 280 127 277 133 L 275 145" opacity="0.8"/>
  <path d="M 300 160 Q 295 148 287 142 L 282 138 Q 277 135 275 140 L 273 150" opacity="0.6"/>
  <path d="M 295 165 Q 290 154 283 148 L 278 144 Q 274 142 272 146 L 270 155" opacity="0.4"/>

  <!-- Bottom Left -->
  <path d="M 80 260 Q 80 280 90 290 L 100 295 Q 110 300 115 290 L 120 275" opacity="0.8"/>
  <path d="M 85 255 Q 85 272 93 282 L 100 287 Q 108 292 112 285 L 115 272" opacity="0.6"/>
  <path d="M 90 250 Q 92 265 98 272 L 103 277 Q 108 280 110 275 L 112 265" opacity="0.4"/>

  <path d="M 95 245 Q 100 258 108 265 L 115 270 Q 120 273 123 267 L 125 255" opacity="0.8"/>
  <path d="M 100 240 Q 105 252 113 258 L 118 262 Q 123 265 125 260 L 127 250" opacity="0.6"/>
  <path d="M 105 235 Q 110 246 117 252 L 122 256 Q 126 258 128 254 L 130 245" opacity="0.4"/>

  <!-- Bottom Right -->
  <path d="M 320 260 Q 320 280 310 290 L 300 295 Q 290 300 285 290 L 280 275" opacity="0.8"/>
  <path d="M 315 255 Q 315 272 307 282 L 300 287 Q 292 292 288 285 L 285 272" opacity="0.6"/>
  <path d="M 310 250 Q 308 265 302 272 L 297 277 Q 292 280 290 275 L 288 265" opacity="0.4"/>

  <path d="M 305 245 Q 300 258 292 265 L 285 270 Q 280 273 277 267 L 275 255" opacity="0.8"/>
  <path d="M 300 240 Q 295 252 287 258 L 282 262 Q 277 265 275 260 L 273 250" opacity="0.6"/>
  <path d="M 295 235 Q 290 246 283 252 L 278 256 Q 274 258 272 254 L 270 245" opacity="0.4"/>

  <!-- Connecting dots -->
  <circle cx="135" cy="155" r="1.5" fill="currentColor" opacity="0.3"/>
  <circle cx="145" cy="160" r="1.5" fill="currentColor" opacity="0.3"/>
  <circle cx="155" cy="163" r="1.5" fill="currentColor" opacity="0.3"/>

  <circle cx="265" cy="155" r="1.5" fill="currentColor" opacity="0.3"/>
  <circle cx="255" cy="160" r="1.5" fill="currentColor" opacity="0.3"/>
  <circle cx="245" cy="163" r="1.5" fill="currentColor" opacity="0.3"/>

  <circle cx="135" cy="245" r="1.5" fill="currentColor" opacity="0.3"/>
  <circle cx="145" cy="240" r="1.5" fill="currentColor" opacity="0.3"/>
  <circle cx="155" cy="237" r="1.5" fill="currentColor" opacity="0.3"/>

  <circle cx="265" cy="245" r="1.5" fill="currentColor" opacity="0.3"/>
  <circle cx="255" cy="240" r="1.5" fill="currentColor" opacity="0.3"/>
  <circle cx="245" cy="237" r="1.5" fill="currentColor" opacity="0.3"/>
</svg>
